<?xml version="1.0" encoding="UTF-8"?>
<svg class="ddn-svg ddn-view-chart ddn-profile-chart-treemap-1" xmlns="http://www.w3.org/2000/svg" width="1180" height="838" viewBox="0 0 1180 838" role="img" aria-labelledby="projection-title projection-description" style="font-family:DejaVu Sans, Arial, sans-serif"><title id="projection-title">Synthetic tier throughput / iso treemap blocks</title><desc id="projection-description">chart.treemap@1. Data-bound projection. Inspect marks to locate shared source definitions.</desc><rect width="100%" height="100%" fill="#F6F8FC"/><text x="30" y="38" font-size="11" fill="#17263D" font-weight="600" text-anchor="start" >DDN / 0.5 PROJECTION PREVIEW / chart.treemap@1</text><text x="30" y="72" font-size="24" fill="#17263D" font-weight="650" text-anchor="start" >Synthetic tier throughput / iso treemap blocks</text><g id="drawing" transform="translate(30 122) scale(1)"><rect x="0" y="0" width="1120" height="640" rx="0" fill="#FFFFFF" stroke="#D8E1EB" stroke-width="1.8"/><g class="ddn-mark ddn-mark-treemap" data-id="ddn.examples.iso-charts::capacity.web" data-source-ids="[&quot;ddn.examples.iso-charts::capacity.web&quot;]" data-projection-mark="mark:ddn.examples.iso-charts::iso_treemap:0" data-property="x_record.value" tabindex="0" role="group"><title>Web: 420 req/s</title><path class="ddn-iso-side" d="M362.545 42L379.866 32L379.866 463L362.545 473Z" fill="#245880" stroke="#FFFFFF" stroke-width="1"></path><path class="ddn-iso-top" d="M112 42L129.321 32L379.866 32L362.545 42Z" fill="#2b6a9c" stroke="#FFFFFF" stroke-width="1"></path><path class="ddn-iso-front" data-value-depth="20" d="M112 42L362.545 42L362.545 473L112 473Z" fill="#337DB7" stroke="#FFFFFF" stroke-width="1"></path><text x="120" y="60" font-size="12" fill="#17263D" font-weight="400" text-anchor="start" >Web: 420 req/s</text></g><g class="ddn-mark ddn-mark-treemap" data-id="ddn.examples.iso-charts::capacity.api" data-source-ids="[&quot;ddn.examples.iso-charts::capacity.api&quot;]" data-projection-mark="mark:ddn.examples.iso-charts::iso_treemap:1" data-property="x_record.value" tabindex="0" role="group"><title>API: 610 req/s</title><path class="ddn-iso-side" d="M732.242 42L749.563 32L749.563 463L732.242 473Z" fill="#246a4d" stroke="#FFFFFF" stroke-width="1"></path><path class="ddn-iso-top" d="M366.545 42L383.866 32L749.563 32L732.242 42Z" fill="#2c805e" stroke="#FFFFFF" stroke-width="1"></path><path class="ddn-iso-front" data-value-depth="20" d="M366.545 42L732.242 42L732.242 473L366.545 473Z" fill="#34976E" stroke="#FFFFFF" stroke-width="1"></path><text x="374.545" y="60" font-size="12" fill="#17263D" font-weight="400" text-anchor="start" >API: 610 req/s</text></g><g class="ddn-mark ddn-mark-treemap" data-id="ddn.examples.iso-charts::capacity.db" data-source-ids="[&quot;ddn.examples.iso-charts::capacity.db&quot;]" data-projection-mark="mark:ddn.examples.iso-charts::iso_treemap:2" data-property="x_record.value" tabindex="0" role="group"><title>Database: 380 req/s</title><path class="ddn-iso-side" d="M962.545 42L979.866 32L979.866 463L962.545 473Z" fill="#784727" stroke="#FFFFFF" stroke-width="1"></path><path class="ddn-iso-top" d="M736.242 42L753.563 32L979.866 32L962.545 42Z" fill="#925630" stroke="#FFFFFF" stroke-width="1"></path><path class="ddn-iso-front" data-value-depth="20" d="M736.242 42L962.545 42L962.545 473L736.242 473Z" fill="#AC6538" stroke="#FFFFFF" stroke-width="1"></path><text x="744.242" y="60" font-size="12" fill="#17263D" font-weight="400" text-anchor="start" >Database: 380 req/s</text></g><g class="ddn-mark ddn-mark-treemap" data-id="ddn.examples.iso-charts::capacity.cache" data-source-ids="[&quot;ddn.examples.iso-charts::capacity.cache&quot;]" data-projection-mark="mark:ddn.examples.iso-charts::iso_treemap:3" data-property="x_record.value" tabindex="0" role="group"><title>Cache: 240 req/s</title><path class="ddn-iso-side" d="M1108 42L1125.321 32L1125.321 463L1108 473Z" fill="#5b3e7c" stroke="#FFFFFF" stroke-width="1"></path><path class="ddn-iso-top" d="M966.545 42L983.866 32L1125.321 32L1108 42Z" fill="#6f4c96" stroke="#FFFFFF" stroke-width="1"></path><path class="ddn-iso-front" data-value-depth="20" d="M966.545 42L1108 42L1108 473L966.545 473Z" fill="#8259B1" stroke="#FFFFFF" stroke-width="1"></path><text x="974.545" y="60" font-size="12" fill="#17263D" font-weight="400" text-anchor="start" >Cache: 240 req/s</text></g><text x="20" y="625" font-size="11" fill="#17263D" font-weight="400" text-anchor="start" >4 tiles · total 1,650 req/s · tile area encodes one value per record; slice-and-dice layout in declaration order; dotted paths nest tiles.</text></g><path d="M30 785L1150 785" stroke="#D8E1EB" stroke-width="1" fill="none"/><text x="30" y="808" font-size="11" fill="#17263D" font-weight="400" text-anchor="start" >One model · source-bound occurrences · classic / default</text><text x="1150" y="808" font-size="11" fill="#17263D" font-weight="600" text-anchor="end" >chart</text></svg>