<?xml version="1.0" encoding="UTF-8"?>
<svg class="ddn-svg ddn-view-chart ddn-profile-chart-basic-1" xmlns="http://www.w3.org/2000/svg" width="1114" height="842" viewBox="0 0 1114 842" role="img" aria-labelledby="projection-title projection-description" style="font-family:DejaVu Sans, Arial, sans-serif"><title id="projection-title">Chart marks / iso bar</title><desc id="projection-description">chart.basic@1. Data-bound projection. Inspect marks to locate shared source definitions.</desc><rect width="100%" height="100%" fill="#F6F8FC"/><text x="32" y="40" font-size="11" fill="#17263D" font-weight="600" text-anchor="start" >DDN / 0.5 PROJECTION PREVIEW / chart.basic@1</text><text x="32" y="74" font-size="24" fill="#17263D" font-weight="650" text-anchor="start" >Chart marks / iso bar</text><g id="drawing" transform="translate(32 124) scale(1)"><rect x="0" y="0" width="1050" height="640" rx="0" fill="#FFFFFF" stroke="#D8E1EB" stroke-width="1.8"/><path d="M100 516L975 516" stroke="#D8E1EB" stroke-width="1" fill="none"/><text x="88" y="520" font-size="11" fill="#17263D" font-weight="400" text-anchor="end" >0</text><path d="M100 419.8L975 419.8" stroke="#D8E1EB" stroke-width="1" fill="none"/><text x="88" y="423.8" font-size="11" fill="#17263D" font-weight="400" text-anchor="end" >94</text><path d="M100 323.6L975 323.6" stroke="#D8E1EB" stroke-width="1" fill="none"/><text x="88" y="327.6" font-size="11" fill="#17263D" font-weight="400" text-anchor="end" >188</text><path d="M100 227.4L975 227.4" stroke="#D8E1EB" stroke-width="1" fill="none"/><text x="88" y="231.4" font-size="11" fill="#17263D" font-weight="400" text-anchor="end" >282</text><path d="M100 131.2L975 131.2" stroke="#D8E1EB" stroke-width="1" fill="none"/><text x="88" y="135.2" font-size="11" fill="#17263D" font-weight="400" text-anchor="end" >376</text><path d="M100 35L975 35" stroke="#D8E1EB" stroke-width="1" fill="none"/><text x="88" y="39" font-size="11" fill="#17263D" font-weight="400" text-anchor="end" >470</text><path d="M100 35L100 516" stroke="#17263D" stroke-width="1.4" fill="none"/><path d="M100 516L975 516" stroke="#17263D" stroke-width="1.4" fill="none"/><text x="100" y="21" font-size="12" fill="#17263D" font-weight="650" text-anchor="start" >MWh</text><g class="ddn-mark ddn-mark-bar" data-id="ddn.gallery.marks::quarterly.q1" data-source-ids="[&quot;ddn.gallery.marks::quarterly.q1&quot;]" data-projection-mark="mark:ddn.gallery.marks::mark_iso_bar:0" data-property="x_record.mwh" tabindex="0" role="group"><title>Q1: 412 MWh</title><path class="ddn-iso-side" d="M280.469 94.357L296.057 85.357L296.057 507L280.469 516Z" fill="#245880" stroke="#FFFFFF" stroke-width="1"></path><path class="ddn-iso-top" d="M138.281 94.357L153.87 85.357L296.057 85.357L280.469 94.357Z" fill="#2b6a9c" stroke="#FFFFFF" stroke-width="1"></path><path class="ddn-iso-front" data-value-depth="18" d="M138.281 94.357L280.469 94.357L280.469 516L138.281 516Z" fill="#337DB7" stroke="#FFFFFF" stroke-width="1"></path></g><text x="209.375" y="541" font-size="11" fill="#17263D" font-weight="400" text-anchor="middle" >Q1</text><g class="ddn-mark ddn-mark-bar" data-id="ddn.gallery.marks::quarterly.q2" data-source-ids="[&quot;ddn.gallery.marks::quarterly.q2&quot;]" data-projection-mark="mark:ddn.gallery.marks::mark_iso_bar:1" data-property="x_record.mwh" tabindex="0" role="group"><title>Q2: 355 MWh</title><path class="ddn-iso-side" d="M499.219 152.691L514.807 143.691L514.807 507L499.219 516Z" fill="#246a4d" stroke="#FFFFFF" stroke-width="1"></path><path class="ddn-iso-top" d="M357.031 152.691L372.62 143.691L514.807 143.691L499.219 152.691Z" fill="#2c805e" stroke="#FFFFFF" stroke-width="1"></path><path class="ddn-iso-front" data-value-depth="18" d="M357.031 152.691L499.219 152.691L499.219 516L357.031 516Z" fill="#34976E" stroke="#FFFFFF" stroke-width="1"></path></g><text x="428.125" y="541" font-size="11" fill="#17263D" font-weight="400" text-anchor="middle" >Q2</text><g class="ddn-mark ddn-mark-bar" data-id="ddn.gallery.marks::quarterly.q3" data-source-ids="[&quot;ddn.gallery.marks::quarterly.q3&quot;]" data-projection-mark="mark:ddn.gallery.marks::mark_iso_bar:2" data-property="x_record.mwh" tabindex="0" role="group"><title>Q3: 388 MWh</title><path class="ddn-iso-side" d="M717.969 118.919L733.557 109.919L733.557 507L717.969 516Z" fill="#784727" stroke="#FFFFFF" stroke-width="1"></path><path class="ddn-iso-top" d="M575.781 118.919L591.37 109.919L733.557 109.919L717.969 118.919Z" fill="#925630" stroke="#FFFFFF" stroke-width="1"></path><path class="ddn-iso-front" data-value-depth="18" d="M575.781 118.919L717.969 118.919L717.969 516L575.781 516Z" fill="#AC6538" stroke="#FFFFFF" stroke-width="1"></path></g><text x="646.875" y="541" font-size="11" fill="#17263D" font-weight="400" text-anchor="middle" >Q3</text><g class="ddn-mark ddn-mark-bar" data-id="ddn.gallery.marks::quarterly.q4" data-source-ids="[&quot;ddn.gallery.marks::quarterly.q4&quot;]" data-projection-mark="mark:ddn.gallery.marks::mark_iso_bar:3" data-property="x_record.mwh" tabindex="0" role="group"><title>Q4: 470 MWh</title><path class="ddn-iso-side" d="M936.719 35L952.307 26L952.307 507L936.719 516Z" fill="#5b3e7c" stroke="#FFFFFF" stroke-width="1"></path><path class="ddn-iso-top" d="M794.531 35L810.12 26L952.307 26L936.719 35Z" fill="#6f4c96" stroke="#FFFFFF" stroke-width="1"></path><path class="ddn-iso-front" data-value-depth="18" d="M794.531 35L936.719 35L936.719 516L794.531 516Z" fill="#8259B1" stroke="#FFFFFF" stroke-width="1"></path></g><text x="865.625" y="541" font-size="11" fill="#17263D" font-weight="400" text-anchor="middle" >Q4</text><text x="100" y="625" font-size="11" fill="#17263D" font-weight="400" text-anchor="start" >Source-bound bar · 4 marks · supplied data, not a financial calculation certificate.</text></g><path d="M32 787L1082 787" stroke="#D8E1EB" stroke-width="1" fill="none"/><text x="32" y="810" font-size="11" fill="#17263D" font-weight="400" text-anchor="start" >One model · source-bound occurrences · classic / default</text><text x="1082" y="810" font-size="11" fill="#17263D" font-weight="600" text-anchor="end" >chart</text></svg>